# xmcd
# Copyright (C) 1995-1998 Ti Kan
#
# Track frame offsets:
#       150
#       11098
#       25828
#       35871
#       50922
#       66088
#       81454
#       96631
#       109644
#       126950
#       138255
#       151594
#       168663
#       183237
#
# Disc length: 2631 seconds
#
# Revision: 0
# Processed by: cddbd v1.5.2PL0 Copyright (c) Steve Scherf et al.
# Submitted via: CD-Import v1.0
#
DISCID=c40a450e
DTITLE=Lea Lu - Dots And Lines
DYEAR=2009
DGENRE=
TTITLE0=Hawaii
TTITLE1=Bababababa (Song For You)
TTITLE2=After The Tornado
TTITLE3=Sailor
TTITLE4=Disco Gold
TTITLE5=Tu Me Donnes
TTITLE6=Morning Muse (Feat. William White)
TTITLE7=Nightmare Lullaby
TTITLE8=In A Place Full Of Roses
TTITLE9=On My Mind
TTITLE10=Why
TTITLE11=Shit
TTITLE12=Just A Summerbreeze
TTITLE13=Protesting Against M.
EXTD=
EXTT0=
EXTT1=
EXTT2=
EXTT3=
EXTT4=
EXTT5=
EXTT6=
EXTT7=
EXTT8=
EXTT9=
EXTT10=
EXTT11=
EXTT12=
EXTT13=
PLAYORDER=
